<?xml version="1.0" standalone="no"?><!DOCTYPE svg PUBLIC "-//W3C//DTD SVG 1.1//EN" "http://www.w3.org/Graphics/SVG/1.1/DTD/svg11.dtd"><svg t="1696608154890" class="icon" viewBox="0 0 1024 1024" version="1.1" xmlns="http://www.w3.org/2000/svg" p-id="2828" data-spm-anchor-id="a313x.search_index.0.i6.7df23a81DvmbXd" xmlns:xlink="http://www.w3.org/1999/xlink" width="200" height="200"><path d="M644.6 545.8c-5.8 10.8-11.7 21.6-18 32.4a886.6 886.6 0 0 1-19.1 31.7c20.9-2 41.1-4.6 60.4-7.9-6.8-18.3-14.6-37.1-23.3-56.2zM512 379.7c12.4 0 24.8 0.2 37 0.6-12.2-17.1-24.5-33.3-37-48.4-12.5 15.1-24.9 31.3-37 48.4 12.2-0.4 24.6-0.6 37-0.6zM607.5 414.1c6.5 10.4 12.8 21 19.1 31.7 6.2 10.8 12.2 21.6 18 32.4 8.7-19.1 16.6-37.9 23.4-56.3-19.4-3.2-39.6-5.8-60.5-7.8zM678 393.3c6.6-20.3 11.8-39.8 15.6-58.3 12.3-60 7.4-102.9-13.1-114.8s-60.1 5.4-105.9 46c-14.1 12.5-28.4 26.8-42.7 42.7 18.7 22.3 37.2 47 55 73.4 31.8 2.2 62.4 5.9 91.1 11zM346 393.3c28.7-5 59.3-8.7 91.1-11 17.9-26.4 36.3-51.1 55-73.4-14.3-15.8-28.6-30.2-42.7-42.7-45.8-40.7-85.5-57.9-105.9-46C323 232 318.1 274.9 330.4 335c3.8 18.4 9 38 15.6 58.3zM416.5 414.1c-20.9 2-41.1 4.6-60.4 7.9 6.8 18.4 14.7 37.2 23.4 56.3 5.8-10.8 11.7-21.6 18-32.4 6.1-10.8 12.5-21.4 19-31.8zM416.5 609.9c-6.5-10.4-12.8-21-19.1-31.7-6.2-10.8-12.2-21.6-18-32.4-8.7 19.1-16.6 37.9-23.4 56.3 19.4 3.2 39.6 5.8 60.5 7.8zM453.8 612.7c19 1.1 38.5 1.6 58.2 1.6 19.7 0 39.1-0.5 58.2-1.6 10.4-15.9 20.6-32.5 30.5-49.6 9.8-17.1 19.1-34.2 27.7-51.2-8.6-17-17.8-34.1-27.7-51.2-9.8-17.1-20-33.6-30.5-49.6-19-1.1-38.5-1.6-58.2-1.6-19.7 0-39.1 0.5-58.2 1.6-10.4 15.9-20.6 32.5-30.5 49.6-9.8 17.1-19.1 34.2-27.7 51.2 8.6 17 17.8 34.1 27.7 51.2 9.9 17.1 20.1 33.7 30.5 49.6zM512 480c17.7 0 32 14.3 32 32s-14.3 32-32 32-32-14.3-32-32 14.3-32 32-32zM362.2 512c-13.9-28.7-26.1-57-36.1-84.4-20.9 4.4-40.4 9.7-58.3 15.6-58.1 19.4-92.8 45.1-92.8 68.8 0 23.7 34.7 49.4 92.8 68.7 17.9 6 37.5 11.2 58.3 15.6 10.1-27.3 22.2-55.6 36.1-84.3z" fill="#333333" p-id="2829"></path><path d="M736 64H288C164.3 64 64 164.3 64 288v448c0 123.7 100.3 224 224 224h448c123.7 0 224-100.3 224-224V288c0-123.7-100.3-224-224-224z m109.6 505.5c-19.1 15-46 28.4-80 39.7-17.9 6-37.4 11.2-58 15.7 6.4 20.2 11.6 39.6 15.4 58.1 7.2 35.1 9.1 65.1 5.6 89.1-4 27.9-15.2 47.3-33.1 57.6-8.9 5.1-18.9 7.7-29.9 7.7-11.2 0-23.4-2.6-36.5-7.9-22.6-9-47.6-25.6-74.4-49.4-14.1-12.5-28.4-26.7-42.6-42.4-14.2 15.6-28.5 29.9-42.6 42.4-26.8 23.8-51.8 40.4-74.4 49.4-13.2 5.3-25.4 7.9-36.5 7.9-11 0-21-2.6-29.9-7.7-17.9-10.3-29-29.7-33.1-57.6-3.5-24.1-1.6-54 5.6-89.1 3.8-18.5 9-38 15.4-58.1-20.7-4.5-40.1-9.8-58-15.7-34-11.3-60.9-24.7-80-39.7C156.2 552 145 532.7 145 512c0-20.7 11.2-40 33.4-57.5 19.1-15 46-28.4 80-39.7 17.9-6 37.4-11.2 58-15.7-6.4-20.2-11.6-39.6-15.4-58.1-7.2-35.1-9.1-65.1-5.6-89.1 4-27.9 15.2-47.3 33.1-57.6 17.9-10.3 40.3-10.3 66.4 0.2 22.6 9 47.6 25.6 74.4 49.4 14.1 12.5 28.4 26.7 42.6 42.4 14.2-15.6 28.5-29.9 42.6-42.4 26.8-23.8 51.8-40.4 74.4-49.4 26.2-10.5 48.5-10.5 66.4-0.2 17.9 10.3 29 29.7 33.1 57.6 3.5 24.1 1.6 54-5.6 89.1-3.8 18.5-9 38-15.4 58.1 20.7 4.5 40.1 9.8 58 15.7 34 11.3 60.9 24.7 80 39.7C867.8 472 879 491.3 879 512c0 20.7-11.2 40-33.4 57.5z" fill="#333333" p-id="2830"></path><path d="M678 630.7c-28.7 5-59.3 8.7-91.1 11-17.9 26.4-36.3 51.1-55 73.4 14.3 15.8 28.6 30.2 42.7 42.7 36.3 32.2 68.7 49.7 90.8 49.7 5.8 0 10.9-1.2 15.1-3.7C701 792 705.9 749.1 693.6 689c-3.8-18.4-9-38-15.6-58.3zM756.2 443.3c-17.9-6-37.5-11.2-58.3-15.6-10 27.4-22.1 55.7-36.1 84.4 13.9 28.7 26.1 57 36.1 84.4 20.9-4.4 40.4-9.7 58.3-15.6 58.1-19.4 92.8-45.1 92.8-68.7 0-23.9-34.7-49.6-92.8-68.9zM346 630.7c-6.6 20.3-11.8 39.8-15.6 58.3-12.3 60-7.4 102.9 13.1 114.8 20.5 11.8 60.1-5.4 105.9-46 14.1-12.5 28.4-26.8 42.7-42.7-18.7-22.3-37.2-47-55-73.4-31.8-2.2-62.4-5.9-91.1-11zM512 644.3c-12.4 0-24.8-0.2-37-0.6 12.2 17.1 24.5 33.3 37 48.4 12.5-15.1 24.9-31.3 37-48.4-12.2 0.4-24.6 0.6-37 0.6z" fill="#333333" p-id="2831"></path></svg>